<?xml version="1.0" encoding="utf-8"?>
<!-- Generator: Adobe Illustrator 21.0.0, SVG Export Plug-In . SVG Version: 6.00 Build 0)  -->
<svg version="1.1" id="Capa_1" xmlns="http://www.w3.org/2000/svg" xmlns:xlink="http://www.w3.org/1999/xlink" x="0px" y="0px"
	 viewBox="0 0 512 512" style="enable-background:new 0 0 512 512;" xml:space="preserve">
<style type="text/css">
	.st0{fill:#FFFFFF;}
</style>
<g>
	<g>
		<path class="st0" d="M512,412.6c-0.7-19.8-9-38.3-23.2-52c-27.9-26.9-51.3-42.5-73.6-48.9c-30.7-8.9-59.2-0.8-84.6,24
			c0,0-0.1,0.1-0.1,0.1l-27,26.8c-16.9-9.5-49.8-30.4-85.3-65.9l-2.6-2.6c-35.5-35.5-56.4-68.4-65.9-85.3l26.8-27
			c0,0,0.1-0.1,0.1-0.1c24.8-25.4,32.9-53.9,24-84.6c-6.4-22.3-22-45.7-48.9-73.6C137.7,9,119.3,0.8,99.4,0.1
			C79.6-0.7,60.6,6.2,45.9,19.5L45.3,20c-0.3,0.2-0.5,0.5-0.8,0.7C15.2,50.1-0.2,91.2,0,139.6c0.4,82.2,45.6,176.2,120.9,251.5
			c14.2,14.2,30.3,28.2,48,41.8c8.8,6.7,21.3,5.1,28-3.7c6.7-8.8,5.1-21.3-3.7-28c-16.2-12.4-31-25.3-44-38.3
			c-68-68-108.8-151.5-109.2-223.4c-0.2-37.3,11-68.4,32.4-90l0.2-0.1c14.5-13,36.5-12.3,50.1,1.8c51.8,53.7,48,79,25.1,102.5
			l-37.1,37.4c-5.8,5.9-7.4,14.7-4.1,22.2c0.9,2.1,23.7,52.4,80.4,109.1l2.6,2.6c56.7,56.7,107,79.5,109.1,80.4
			c7.5,3.4,16.4,1.7,22.2-4.1l37.4-37.1c23.5-22.9,48.8-26.6,102.5,25.2c14.1,13.6,14.9,35.6,1.8,50.1l-0.1,0.2
			c-21.4,21.2-52.2,32.4-89.1,32.4c-0.3,0-0.6,0-0.9,0c-29.5-0.1-63.6-8.2-98.7-23.4c-10.1-4.4-21.9,0.3-26.3,10.4
			c-4.4,10.1,0.3,21.9,10.4,26.3c40.6,17.5,79,26.5,114.3,26.6c0.4,0,0.7,0,1.1,0c47.9,0,88.6-15.4,117.7-44.5
			c0.3-0.3,0.5-0.5,0.7-0.8l0.5-0.6C505.8,451.4,512.7,432.4,512,412.6z"/>
	</g>
</g>
</svg>
