<?xml version="1.0" encoding="utf-8"?>
<!-- Generator: Adobe Illustrator 21.0.0, SVG Export Plug-In . SVG Version: 6.00 Build 0)  -->
<svg version="1.1" id="Capa_1" xmlns="http://www.w3.org/2000/svg" xmlns:xlink="http://www.w3.org/1999/xlink" x="0px" y="0px"
	 viewBox="0 0 512 512" style="enable-background:new 0 0 512 512;" xml:space="preserve">
<style type="text/css">
	.st0{fill:#FFFFFF;}
</style>
<g>
	<g>
		<path class="st0" d="M506.2,236.4L297.8,26.6c-0.3-0.3-0.5-0.5-0.8-0.8c-22.8-20.4-57.1-20.5-80-0.2c-0.3,0.3-0.6,0.5-0.8,0.8
			L5.9,236.4c-7.8,7.8-7.8,20.5,0,28.3c7.8,7.8,20.5,7.8,28.3,0L50,248.8v172.7c0,44.1,35.9,80,80,80h72c11,0,20-9,20-20v-163h70
			v163c0,11,9,20,20,20h70c44.1,0,80-35.9,80-80c0-11-9-20-20-20s-20,9-20,20c0,22.1-17.9,40-40,40h-50v-163c0-11-9-20-20-20H202
			c-11,0-20,9-20,20v163h-52c-22.1,0-40-17.9-40-40v-212c0-0.2,0-0.4,0-0.6l154-153.7c7.5-6.4,18.5-6.3,25.9,0.1L422,208.4v113.1
			c0,11,9,20,20,20s20-9,20-20v-72.8l15.8,15.9c3.9,3.9,9,5.9,14.2,5.9c5.1,0,10.2-1.9,14.1-5.8C513.9,256.9,514,244.2,506.2,236.4z
			"/>
	</g>
</g>
</svg>
