<?xml version="1.0" encoding="utf-8"?>
<!-- Generator: Adobe Illustrator 25.1.0, SVG Export Plug-In . SVG Version: 6.00 Build 0)  -->
<svg version="1.1" id="Layer_1" xmlns:v="https://vecta.io/nano"
	 xmlns="http://www.w3.org/2000/svg" xmlns:xlink="http://www.w3.org/1999/xlink" x="0px" y="0px" viewBox="0 0 512 512"
	 style="enable-background:new 0 0 512 512;" xml:space="preserve">
<style type="text/css">
	.st0{fill:#FFFFFF;}
</style>
<path class="st0" d="M510.7,438.7c-2.2-10.8-12.8-17.8-23.7-15.5s-17.8,12.8-15.5,23.7c1.3,6.2-0.2,12.6-4.2,17.5
	c-2.3,2.8-7.5,7.6-16,7.6H60.7c-8.5,0-13.7-4.8-16-7.6c-4-4.9-5.5-11.3-4.2-17.5c20.8-99.7,108.7-172.5,210.2-175
	c1.8,0.1,3.5,0.1,5.3,0.1c1.8,0,3.5,0,5.3-0.1c71.5,1.7,137.6,37.9,177.7,97.7c6.1,9.2,18.6,11.6,27.8,5.5s11.6-18.6,5.5-27.8
	c-32.8-48.9-80.5-84.5-134.8-102.4C370.5,220,392,180.5,392,136C392,61,331,0,256,0S120,61,120,136c0,44.5,21.5,84.1,54.6,108.9
	c-30.4,10-58.9,25.6-83.8,46.1c-45.7,37.6-77.5,90.1-89.5,147.7c-3.8,18.1,0.7,36.6,12.4,50.9c11.6,14.2,28.7,22.4,47,22.4h390.6
	c18.3,0,35.5-8.2,47-22.4C510,475.3,514.5,456.8,510.7,438.7L510.7,438.7z M160,136c0-52.9,43.1-96,96-96s96,43.1,96,96
	c0,51.3-40.5,93.3-91.1,95.9l-4.9,0l-4.8,0C200.5,229.4,160,187.3,160,136z"/>
</svg>
