<svg xmlns="http://www.w3.org/2000/svg" viewBox="0 0 512 512" xmlns:v="https://vecta.io/nano"><path d="M437.02 74.98C388.667 26.63 324.38 0 256 0S123.333 26.63 74.98 74.98 0 187.62 0 256s26.63 132.667 74.98 181.02S187.62 512 256 512c46.813 0 92.617-12.757 132.46-36.893 9.448-5.723 12.468-18.02 6.745-27.468s-18.022-12.468-27.468-6.745C334.143 461.244 295.505 472 256 472c-119.103 0-216-96.897-216-216S136.897 40 256 40s216 96.897 216 216c0 42.6-12.665 84.044-36.627 119.885-6.14 9.182-3.672 21.603 5.5 27.742s21.603 3.67 27.742-5.5C497 355.674 512 306.53 512 256c0-68.38-26.63-132.667-74.98-181.02zM256 76c-11.046 0-20 8.954-20 20v151.716l-73.338 73.338c-7.8 7.8-7.8 20.473 0 28.284 3.905 3.905 9.023 5.858 14.142 5.858s10.237-1.953 14.142-5.858l79.196-79.196A20 20 0 0 0 276 256V96c0-11.046-8.954-20-20-20z"/></svg>