<?xml version="1.0" encoding="utf-8"?>
<!-- Generator: Adobe Illustrator 21.0.0, SVG Export Plug-In . SVG Version: 6.00 Build 0)  -->
<svg version="1.1" id="Capa_1" xmlns="http://www.w3.org/2000/svg" xmlns:xlink="http://www.w3.org/1999/xlink" x="0px" y="0px"
	 viewBox="0 0 512 512" style="enable-background:new 0 0 512 512;" xml:space="preserve">
<style type="text/css">
	.st0{fill:#FFFFFF;}
</style>
<g>
	<g>
		<g>
			<path class="st0" d="M268.7,266.2c10.9-1.5,18.6-11.5,17.1-22.5c-1.5-10.9-11.5-18.6-22.5-17.1c-2.4,0.3-4.9,0.5-7.3,0.5
				c-29.8,0-54-24.2-54-54s24.2-54,54-54s54,24.2,54,54c0,2.9-0.2,5.9-0.7,8.8c-1.8,10.9,5.6,21.2,16.5,23
				c10.9,1.8,21.2-5.6,23-16.5c0.8-5,1.2-10.1,1.2-15.2c0-51.8-42.2-94-94-94s-94,42.2-94,94s42.2,94,94,94
				C260.2,267,264.5,266.7,268.7,266.2z"/>
			<path class="st0" d="M438.8,396.6c-15.4-8.1-36.5-14.9-62.8-20.2c-10.8-2.2-21.4,4.8-23.6,15.6c-2.2,10.8,4.8,21.4,15.6,23.6
				c40.5,8.2,57.1,18.1,61.9,22.9c-3.5,3.5-15.3,12.4-50,20.8C345.9,467.5,301.8,472,256,472s-89.9-4.5-123.9-12.7
				c-34.7-8.4-46.5-17.2-50-20.8c4.8-4.8,21.4-14.7,61.9-22.9c10.8-2.2,17.8-12.8,15.6-23.6c-2.2-10.8-12.8-17.8-23.6-15.6
				c-26.3,5.3-47.4,12.1-62.8,20.2C51.8,407.8,41,421.9,41,438.5c0,24.8,24.2,44,71.8,57.1C151.3,506.2,202.2,512,256,512
				s104.7-5.8,143.2-16.4c47.7-13.1,71.8-32.3,71.8-57.1C471,421.9,460.2,407.8,438.8,396.6z"/>
			<path class="st0" d="M239.1,422.7c3.7,5.8,10,9.3,16.9,9.3c6.9,0,13.2-3.5,16.9-9.3c18.3-29,42.2-54.5,65.3-79.1
				c45.1-48.1,91.7-97.8,91.8-171.6c-0.1-46.3-18.2-89.6-51.2-122C346,17.7,302.4,0,256,0c-46.4,0-89.8,17.8-122.3,50
				C101,82.3,83.1,125.7,83,172c0.1,73.9,46.5,123.7,91.4,171.9C197.2,368.4,220.8,393.8,239.1,422.7z M256,40
				c73.8,0,133.9,59.2,134,132c-0.1,58-37.6,98-81,144.3c-18,19.2-36.4,38.8-53,60.7c-16.4-21.8-34.6-41.3-52.4-60.3
				c-43.2-46.4-80.6-86.5-80.6-144.6C123.1,98,181.5,40,256,40z"/>
		</g>
	</g>
</g>
</svg>
