<svg xmlns="http://www.w3.org/2000/svg" viewBox="0 0 512 512" xmlns:v="https://vecta.io/nano"><path d="M510.702 438.722c-2.25-10.813-12.84-17.754-23.657-15.503s-17.755 12.843-15.503 23.656c1.297 6.23-.248 12.613-4.236 17.52-2.3 2.84-7.46 7.606-16 7.606H60.693c-8.538 0-13.69-4.766-16-7.606-3.99-4.905-5.533-11.3-4.236-17.52 20.756-99.695 108.69-172.52 210.24-174.977A137.23 137.23 0 0 0 256 272a138.3 138.3 0 0 0 5.322-.103c71.532 1.716 137.648 37.947 177.687 97.66 6.15 9.175 18.574 11.625 27.75 5.474s11.625-18.575 5.473-27.75c-32.817-48.944-80.47-84.534-134.804-102.417C370.538 220.036 392 180.477 392 136 392 61 330.99 0 256 0S120 61 120 136c0 44.504 21.488 84.084 54.633 108.91-30.368 9.998-58.863 25.555-83.803 46.07-45.732 37.617-77.53 90.086-89.532 147.742-3.762 18.067.745 36.623 12.363 50.91C25.222 503.847 42.365 512 60.693 512h390.613a60.37 60.37 0 0 0 47.032-22.369c11.62-14.286 16.126-32.842 12.364-50.91zM160 136c0-52.935 43.065-96 96-96s96 43.065 96 96c0 51.305-40.455 93.34-91.14 95.878l-4.86-.045-4.84.046C200.465 229.35 160 187.312 160 136z"/></svg>