<?xml version="1.0" encoding="utf-8"?>
<!-- Generator: Adobe Illustrator 25.1.0, SVG Export Plug-In . SVG Version: 6.00 Build 0)  -->
<svg version="1.1" id="Capa_1" xmlns="http://www.w3.org/2000/svg" xmlns:xlink="http://www.w3.org/1999/xlink" x="0px" y="0px"
	 viewBox="0 0 512 512" style="enable-background:new 0 0 512 512;" xml:space="preserve">
<style type="text/css">
	.st0{fill:#FFFFFF;}
</style>
<g>
	<g>
		<path class="st0" d="M363.3,0H148.7C66.7,0,0,66.7,0,148.7v214.5C0,445.3,66.7,512,148.7,512h214.5c23.7,0,46.3-5.4,67.3-16
			c20-10.1,37.7-25,51.3-42.9c6.7-8.8,5-21.3-3.8-28c-8.8-6.7-21.3-5-28,3.8c-20.8,27.4-52.4,43.1-86.7,43.1H148.7
			C88.8,472,40,423.2,40,363.3V148.7C40,88.8,88.8,40,148.7,40h214.5c60,0,108.7,48.8,108.7,108.7V343c0,11,9,20,20,20s20-9,20-20
			V148.7C512,66.7,445.3,0,363.3,0z"/>
	</g>
</g>
<g>
	<g>
		<path class="st0" d="M256,118c-76.1,0-138,61.9-138,138s61.9,138,138,138s138-61.9,138-138S332.1,118,256,118z M256,354
			c-54,0-98-44-98-98s44-98,98-98s98,44,98,98S310,354,256,354z"/>
	</g>
</g>
<g>
	<g>
		<circle class="st0" cx="396" cy="116" r="20"/>
	</g>
</g>
</svg>
