<?xml version="1.0" encoding="utf-8"?>
<!-- Generator: Adobe Illustrator 25.1.0, SVG Export Plug-In . SVG Version: 6.00 Build 0)  -->
<svg version="1.1" id="Capa_1" xmlns="http://www.w3.org/2000/svg" xmlns:xlink="http://www.w3.org/1999/xlink" x="0px" y="0px"
	 viewBox="0 0 512 512" style="enable-background:new 0 0 512 512;" xml:space="preserve">
<style type="text/css">
	.st0{fill:#FFFFFF;}
</style>
<g>
	<g>
		<path class="st0" d="M507.5,116.4c-3.8-4.7-9.5-7.4-15.5-7.4H129.7l-1.5-13.6l-0.1-0.4C121.1,40.8,74.6,0,20,0C9,0,0,9,0,20
			s9,20,20,20c34.5,0,63.9,25.7,68.5,59.9l23.8,218.4C91.5,327.8,77,348.7,77,373c0,0.2,0,0.3,0,0.5c0,0.2,0,0.3,0,0.5
			c0,33.1,26.9,60,60,60h8.1c-2,6-3.1,12.4-3.1,19c0,32.5,26.5,59,59,59s59-26.5,59-59c0-6.6-1.1-13-3.1-19h86.3
			c-2,6-3.1,12.4-3.1,19c0,32.5,26.5,59,59,59s59-26.5,59-59s-26.5-59-59-59H137c-11,0-20-9-20-20c0-0.2,0-0.3,0-0.5
			c0-0.2,0-0.3,0-0.5c0-11,9-20,20-20h255.3c35.5,0,68.1-22,83-56c4.4-10.1-0.2-21.9-10.3-26.4c-10.1-4.4-21.9,0.2-26.4,10.3
			c-8.4,19.2-27,32-46.4,32H151.9l-17.9-164h333.3l-9.8,46.9c-2.3,10.8,4.7,21.4,15.5,23.7c1.4,0.3,2.8,0.4,4.1,0.4
			c9.3,0,17.6-6.5,19.6-15.9l14.8-71C512.8,127.2,511.3,121.1,507.5,116.4z M399,434c10.5,0,19,8.5,19,19s-8.5,19-19,19
			s-19-8.5-19-19S388.5,434,399,434z M201,434c10.5,0,19,8.5,19,19c0,10.5-8.5,19-19,19s-19-8.5-19-19S190.5,434,201,434z"/>
	</g>
</g>
</svg>
