<svg xmlns="http://www.w3.org/2000/svg" viewBox="0 0 28 28"><defs><style>.a{fill:none;opacity:0;}</style></defs><rect class="a" width="28" height="28"/><path d="M6.77,7.34,5.52,6.09,4.28,7.34,5.52,8.59Zm19.72,3.48-1.11-1.1-1.09,1.1,1.09,1.09Zm-2.68,0-1.12-1.1-1.1,1.1,1.1,1.09ZM6.38,15,6.64,15l.25,0a6.49,6.49,0,0,0,1.85-.76,2.52,2.52,0,0,0,1-1.19,3.71,3.71,0,0,0,.14-1.84c0-.41-.23-1.65-.54-3.71l-1.69.27c.33,2.16.51,3.39.56,3.71a1.57,1.57,0,0,1-.08.85,1.06,1.06,0,0,1-.54.47,6.12,6.12,0,0,1-1.2.36l-.18,0-.19,0A2.61,2.61,0,0,1,4.06,13a1.83,1.83,0,0,1-.83-1.49A6.23,6.23,0,0,1,3.65,8.9L2,8.26a7.55,7.55,0,0,0-.43,3.91,3.6,3.6,0,0,0,1.61,2.51A4.06,4.06,0,0,0,6.38,15Zm18.83-2.2-1.63.48.52,2a1.55,1.55,0,0,1,0,.75.55.55,0,0,1-.34.37,2,2,0,0,1-.75.11H20.37l-.09-.75a4.18,4.18,0,0,0-.49-1.66,2.91,2.91,0,0,0-1-1.11,2.37,2.37,0,0,0-1.42-.35,2.49,2.49,0,0,0-1.4.51A2.84,2.84,0,0,0,15,14.39,3.52,3.52,0,0,0,14.79,16a2.79,2.79,0,0,0,.79,1.82,2.54,2.54,0,0,0,1.8.67h1.45a.94.94,0,0,1-.14.54,1.55,1.55,0,0,1-.82.47c-.41.14-1.15.31-2.2.54l-.2,0,.34,1.86.11,0,.1,0a16.68,16.68,0,0,0,2.88-.82,2.69,2.69,0,0,0,1.34-1.14,2.86,2.86,0,0,0,.3-1.45h2.52a3.17,3.17,0,0,0,1.7-.45,2.34,2.34,0,0,0,1-1.25,3.1,3.1,0,0,0,0-1.84Zm-7.83,3.72a1,1,0,0,1-.65-.17.8.8,0,0,1-.24-.54,1.37,1.37,0,0,1,.09-.61,1,1,0,0,1,.32-.46.79.79,0,0,1,.53-.17,1,1,0,0,1,.78.34A1.87,1.87,0,0,1,18.58,16l.06.55ZM13,13.68a2.14,2.14,0,0,0-1.16-.28,2.1,2.1,0,0,0-1.1.37,2.61,2.61,0,0,0-.82.92l-1,1.93a1,1,0,0,1-.41.39,1.27,1.27,0,0,1-.6.14H7.72a2.52,2.52,0,0,1-.66-.06.42.42,0,0,1-.27-.25,2.52,2.52,0,0,1-.06-.66s0-.06,0-.08,0,0,0-.06c-.28.07-.64.14-1,.2a3.5,3.5,0,0,1-.63,0,5.2,5.2,0,0,0,.31,1.52,1.81,1.81,0,0,0,.84,1,3.35,3.35,0,0,0,1.54.3h.15a2.48,2.48,0,0,0,1.45-.43,2.45,2.45,0,0,0,.54-.48l1.51.78a1.72,1.72,0,0,0,.93.21,1.79,1.79,0,0,0,.87-.31,2,2,0,0,0,.62-.71,4.11,4.11,0,0,0,.5-1.71A3.26,3.26,0,0,0,14,14.78,2.33,2.33,0,0,0,13,13.68Zm-.2,2.83a3.46,3.46,0,0,1-.31.84l0,0s0,0,0,0l-.06-.05-1.54-.77.33-.66a1.88,1.88,0,0,1,.36-.48.74.74,0,0,1,.44-.2.69.69,0,0,1,.44.09.76.76,0,0,1,.39.47A1.47,1.47,0,0,1,12.76,16.51Z"/></svg>